<svg width="144" height="59" viewBox="0 0 144 59" fill="none" xmlns="http://www.w3.org/2000/svg">
<path d="M6.18007 19.8447C4.87327 19.8447 3.76007 19.5577 2.84047 18.9838C1.92087 18.4038 1.21605 17.5979 0.725999 16.5661C0.242 15.5343 0 14.3377 0 12.9762C0 11.6147 0.242 10.4181 0.725999 9.38628C1.21605 8.35448 1.92087 7.55163 2.84047 6.97773C3.76007 6.39773 4.87327 6.10773 6.18007 6.10773C7.68651 6.10773 8.93281 6.49236 9.91896 7.26163C10.9112 8.0309 11.6009 9.06575 11.9881 10.3662L10.0642 10.8882C9.81006 9.96628 9.35631 9.2428 8.70291 8.71775C8.05556 8.19269 7.21461 7.93016 6.18007 7.93016C5.25442 7.93016 4.48304 8.14079 3.86594 8.56206C3.24885 8.98333 2.783 9.57249 2.4684 10.3295C2.15985 11.0866 2.00557 11.9688 2.00557 12.9762C1.99952 13.9836 2.15077 14.8658 2.45932 15.6228C2.77392 16.3799 3.23977 16.9691 3.85687 17.3903C4.48002 17.8116 5.25442 18.0222 6.18007 18.0222C7.21461 18.0222 8.05556 17.7597 8.70291 17.2347C9.35631 16.7035 9.81006 15.98 10.0642 15.0642L11.9881 15.5862C11.6009 16.8866 10.9112 17.9215 9.91896 18.6908C8.93281 19.46 7.68651 19.8447 6.18007 19.8447Z" fill="#E5E5E5"/>
<path d="M16.5159 19.5699V11.401H13.1672V9.67933H21.7612V11.401H18.4126V19.5699H16.5159Z" fill="#E5E5E5"/>
<path d="M24.5612 23.9658L26.4578 18.7549L26.4851 20.2934L22.2107 9.67933H24.1891L27.3835 17.8757H26.8027L29.8519 9.67933H31.7758L26.3671 23.9658H24.5612Z" fill="#E5E5E5"/>
<path d="M32.1169 21.7678V18.0314C32.6554 18.0314 33.0396 17.8513 33.2695 17.4911C33.5054 17.1248 33.693 16.5051 33.8321 15.632C33.9168 15.1008 33.9864 14.5361 34.0408 13.9378C34.1013 13.3395 34.1528 12.6923 34.1951 11.9963C34.2375 11.2942 34.2798 10.5219 34.3222 9.67933H41.3462V18.0314H42.3082V21.7678H40.5113V19.5699H33.9229V21.7678H32.1169ZM34.8304 18.0314H39.4405V11.2179H36.0101C35.9859 11.6208 35.9587 12.036 35.9284 12.4634C35.9042 12.8907 35.874 13.315 35.8377 13.7363C35.8074 14.1576 35.7711 14.5605 35.7288 14.9452C35.6864 15.3298 35.638 15.6778 35.5836 15.9892C35.511 16.4715 35.4233 16.8744 35.3204 17.198C35.2236 17.5216 35.0603 17.7994 34.8304 18.0314Z" fill="#E5E5E5"/>
<path d="M52.374 9.67933V19.5699H50.5499V12.6923L45.6495 19.5699H44.1067V9.67933H45.9308V16.4196L50.8403 9.67933H52.374Z" fill="#E5E5E5"/>
<path d="M60.8723 19.5699V16.1357H58.9303C58.7004 16.1357 58.4251 16.1265 58.1044 16.1082C57.7898 16.0899 57.4934 16.0563 57.2151 16.0075C56.483 15.8732 55.872 15.5526 55.3819 15.0459C54.8919 14.5331 54.6469 13.8279 54.6469 12.9304C54.6469 12.0635 54.8768 11.3674 55.3366 10.8424C55.8024 10.3112 56.3923 9.96933 57.1062 9.8167C57.4147 9.74344 57.7293 9.70375 58.05 9.69765C58.3767 9.68544 58.652 9.67933 58.8758 9.67933H62.769L62.7781 19.5699H60.8723ZM54.3655 19.5699L56.843 15.6595H58.8486L56.3893 19.5699H54.3655ZM58.7669 14.5972H60.8723V11.2179H58.7669C58.6338 11.2179 58.4705 11.224 58.2769 11.2362C58.0833 11.2484 57.8957 11.282 57.7142 11.3369C57.5267 11.3919 57.3452 11.4896 57.1697 11.63C57.0003 11.7704 56.8612 11.9505 56.7523 12.1703C56.6434 12.384 56.5889 12.6312 56.5889 12.9121C56.5889 13.3334 56.7069 13.6814 56.9428 13.9561C57.1788 14.2247 57.4601 14.4018 57.7868 14.4873C57.9623 14.5361 58.1377 14.5666 58.3132 14.5788C58.4886 14.5911 58.6399 14.5972 58.7669 14.5972Z" fill="#E5E5E5"/>
<path d="M65.1329 14.5605V13.022H70.5779V14.5605H65.1329Z" fill="#E5E5E5"/>
<path d="M45.1897 36.0178V27.8489H41.841V26.1272H50.435V27.8489H47.0863V36.0178H45.1897Z" fill="#E5E5E5"/>
<path d="M56.505 36.2926C55.531 36.2926 54.6749 36.0789 53.9368 35.6515C53.2048 35.2181 52.6331 34.6167 52.2217 33.8474C51.8163 33.072 51.6136 32.1746 51.6136 31.155C51.6136 30.0743 51.8133 29.1372 52.2126 28.3435C52.6179 27.5498 53.1806 26.9362 53.9005 26.5027C54.6205 26.0692 55.4584 25.8525 56.4143 25.8525C57.4125 25.8525 58.2626 26.0876 58.9644 26.5577C59.6662 27.0217 60.1895 27.6841 60.5343 28.5449C60.8852 29.4058 61.0244 30.4284 60.9518 31.6129H59.0551V30.9169C59.043 29.7691 58.8252 28.9204 58.4017 28.3709C57.9843 27.8215 57.346 27.5467 56.4869 27.5467C55.537 27.5467 54.8231 27.8489 54.3452 28.4534C53.8672 29.0578 53.6283 29.9309 53.6283 31.0725C53.6283 32.1593 53.8672 33.0018 54.3452 33.6001C54.8231 34.1924 55.5128 34.4885 56.4143 34.4885C57.0072 34.4885 57.5184 34.3542 57.948 34.0855C58.3836 33.8108 58.7224 33.42 58.9644 32.9133L60.8247 33.5086C60.4436 34.3938 59.8658 35.0807 59.0914 35.5691C58.317 36.0514 57.4549 36.2926 56.505 36.2926ZM53.0112 31.6129V30.1201H60.008V31.6129H53.0112Z" fill="#E5E5E5"/>
<path d="M65.5785 36.2926C64.8525 36.2926 64.2444 36.1583 63.7544 35.8896C63.2644 35.6149 62.8923 35.2547 62.6382 34.809C62.3901 34.3572 62.2661 33.8627 62.2661 33.3254C62.2661 32.8248 62.3538 32.3852 62.5293 32.0067C62.7047 31.6281 62.9649 31.3076 63.3097 31.0451C63.6546 30.7764 64.0781 30.5597 64.5802 30.3949C65.0158 30.2666 65.5089 30.1537 66.0594 30.056C66.61 29.9583 67.1878 29.8667 67.7928 29.7813C68.4038 29.6958 69.0088 29.6103 69.6078 29.5249L68.9181 29.9095C68.9302 29.1341 68.7668 28.5602 68.428 28.1878C68.0953 27.8093 67.5205 27.62 66.7038 27.62C66.1895 27.62 65.7176 27.7421 65.2881 27.9863C64.8585 28.2244 64.559 28.6213 64.3896 29.1768L62.62 28.6274C62.862 27.7787 63.3218 27.1041 63.9994 26.6035C64.6831 26.1028 65.5906 25.8525 66.7219 25.8525C67.5992 25.8525 68.3615 26.0051 69.0088 26.3104C69.6622 26.6096 70.1402 27.0858 70.4427 27.739C70.6 28.0626 70.6968 28.4045 70.7331 28.7647C70.7694 29.125 70.7875 29.5126 70.7875 29.9278V36.0178H69.1086V33.7558L69.4353 34.0489C69.03 34.8059 68.5127 35.3707 67.8835 35.7431C67.2604 36.1094 66.492 36.2926 65.5785 36.2926ZM65.9142 34.7266C66.4527 34.7266 66.9155 34.6319 67.3027 34.4427C67.6899 34.2473 68.0015 34 68.2374 33.7009C68.4734 33.4017 68.6277 33.0904 68.7003 32.7668C68.8031 32.4737 68.8606 32.144 68.8727 31.7777C68.8908 31.4114 68.8999 31.1183 68.8999 30.8985L69.517 31.1275C68.9181 31.2191 68.3736 31.3015 67.8835 31.3748C67.3935 31.448 66.9488 31.5213 66.5495 31.5946C66.1562 31.6617 65.8053 31.7441 65.4968 31.8418C65.2366 31.9334 65.0037 32.0433 64.798 32.1715C64.5984 32.2997 64.438 32.4554 64.317 32.6386C64.2021 32.8217 64.1446 33.0446 64.1446 33.3071C64.1446 33.5635 64.2081 33.8016 64.3352 34.0214C64.4622 34.2351 64.6558 34.406 64.916 34.5343C65.1761 34.6625 65.5089 34.7266 65.9142 34.7266Z" fill="#E5E5E5"/>
<path d="M75.6759 36.0178V27.8489H72.3273V26.1272H80.9213V27.8489H77.5726V36.0178H75.6759Z" fill="#E5E5E5"/>
<path d="M87.2454 36.2926C86.3077 36.2926 85.5212 36.0636 84.8859 35.6057C84.2507 35.1417 83.7697 34.5159 83.443 33.7284C83.1163 32.9408 82.953 32.0524 82.953 31.0634C82.953 30.0743 83.1133 29.186 83.4339 28.3984C83.7606 27.6108 84.2386 26.9911 84.8678 26.5394C85.503 26.0815 86.2835 25.8525 87.2091 25.8525C88.1287 25.8525 88.9213 26.0815 89.5868 26.5394C90.2583 26.9911 90.7756 27.6108 91.1386 28.3984C91.5016 29.1799 91.6831 30.0682 91.6831 31.0634C91.6831 32.0524 91.5016 32.9438 91.1386 33.7375C90.7816 34.5251 90.2704 35.1478 89.6049 35.6057C88.9455 36.0636 88.159 36.2926 87.2454 36.2926ZM82.6353 40.4137V26.1272H84.3233V33.243H84.5411V40.4137H82.6353ZM86.9822 34.5617C87.5872 34.5617 88.0864 34.406 88.4796 34.0947C88.8789 33.7833 89.1754 33.3651 89.369 32.84C89.5686 32.3089 89.6684 31.7167 89.6684 31.0634C89.6684 30.4162 89.5686 29.8301 89.369 29.3051C89.1754 28.78 88.8759 28.3618 88.4705 28.0504C88.0652 27.739 87.5479 27.5834 86.9187 27.5834C86.3258 27.5834 85.8358 27.7299 85.4486 28.0229C85.0674 28.316 84.7831 28.7251 84.5955 29.2501C84.414 29.7752 84.3233 30.3796 84.3233 31.0634C84.3233 31.7472 84.414 32.3516 84.5955 32.8767C84.777 33.4017 85.0644 33.8138 85.4577 34.113C85.8509 34.4122 86.3591 34.5617 86.9822 34.5617Z" fill="#E5E5E5"/>
<path d="M0.726074 50.372V37.1845H9.24748V38.9886H2.62275V42.1664H6.00772C6.12872 42.1664 6.28299 42.1725 6.47054 42.1848C6.66414 42.1909 6.84564 42.2061 7.01504 42.2305C7.72289 42.316 8.31881 42.548 8.80281 42.9266C9.29286 43.3051 9.66191 43.7843 9.90996 44.3644C10.1641 44.9444 10.2911 45.5793 10.2911 46.2692C10.2911 46.9591 10.1671 47.5941 9.91903 48.1741C9.67098 48.7541 9.30194 49.2333 8.81189 49.6119C8.32789 49.9904 7.72894 50.2224 7.01504 50.3079C6.84564 50.3323 6.66717 50.3506 6.47962 50.3628C6.29207 50.3689 6.13477 50.372 6.00772 50.372H0.726074ZM2.62275 48.5679H5.93512C6.05612 48.5679 6.18922 48.5618 6.33442 48.5495C6.48567 48.5373 6.62784 48.519 6.76094 48.4946C7.34779 48.3725 7.75919 48.0916 7.99514 47.6521C8.23714 47.2125 8.35814 46.7515 8.35814 46.2692C8.35814 45.7808 8.23714 45.3198 7.99514 44.8864C7.75919 44.4468 7.34779 44.1659 6.76094 44.0438C6.62784 44.0133 6.48567 43.995 6.33442 43.9889C6.18922 43.9767 6.05612 43.9706 5.93512 43.9706H2.62275V48.5679Z" fill="#E5E5E5"/>
<path d="M12.0962 50.372V40.4814H14.0019V43.9156H15.2906C15.5689 43.9156 15.8683 43.9217 16.189 43.9339C16.5096 43.9461 16.7819 43.9767 17.0057 44.0255C17.5321 44.1354 17.9889 44.3186 18.3761 44.575C18.7633 44.8314 19.0597 45.1733 19.2654 45.6007C19.4772 46.0219 19.583 46.5409 19.583 47.1575C19.583 48.0184 19.3622 48.7052 18.9206 49.2181C18.4789 49.7248 17.88 50.0667 17.1237 50.2438C16.8817 50.2987 16.5943 50.3353 16.2616 50.3537C15.9349 50.3659 15.6324 50.372 15.3541 50.372H12.0962ZM14.0019 48.8334H15.463C15.6203 48.8334 15.7957 48.8273 15.9893 48.8151C16.1829 48.8029 16.3614 48.7754 16.5248 48.7327C16.8091 48.6472 17.0662 48.4732 17.2961 48.2107C17.526 47.9482 17.641 47.5971 17.641 47.1575C17.641 46.7057 17.526 46.3455 17.2961 46.0769C17.0723 45.8083 16.7879 45.6343 16.4431 45.5549C16.2858 45.5121 16.1194 45.4847 15.944 45.4725C15.7746 45.4603 15.6143 45.4542 15.463 45.4542H14.0019V48.8334ZM20.663 50.372V40.4814H22.5596V50.372H20.663Z" fill="#E5E5E5"/>
<path d="M28.5912 50.6467C27.6414 50.6467 26.7883 50.4422 26.0321 50.0331C25.2819 49.6241 24.689 49.0593 24.2534 48.3389L25.7598 47.3407C26.1107 47.8169 26.5161 48.1863 26.9759 48.4488C27.4417 48.7113 27.9651 48.8426 28.5459 48.8426C29.1509 48.8426 29.6288 48.7052 29.9797 48.4305C30.3367 48.1496 30.5151 47.7742 30.5151 47.3041C30.5151 46.9316 30.4123 46.6569 30.2066 46.4798C30.0069 46.2967 29.7286 46.1776 29.3717 46.1227C29.0208 46.0677 28.6215 46.0403 28.1738 46.0403H27.3026V44.5017H28.1738C28.7667 44.5017 29.2537 44.4193 29.6349 44.2545C30.0221 44.0835 30.2157 43.763 30.2157 43.2929C30.2157 42.835 30.0493 42.5053 29.7165 42.3038C29.3898 42.1023 28.9996 42.0016 28.5459 42.0016C28.0377 42.0016 27.5446 42.1115 27.0666 42.3313C26.5887 42.545 26.1712 42.8106 25.8143 43.128L24.7071 41.8184C25.2274 41.3117 25.8203 40.9179 26.4858 40.6371C27.1574 40.3501 27.8773 40.2066 28.6457 40.2066C29.2749 40.2066 29.8557 40.3196 30.3881 40.5455C30.9265 40.7653 31.3561 41.0919 31.6767 41.5254C32.0034 41.9589 32.1668 42.4931 32.1668 43.128C32.1668 43.6226 32.0579 44.0743 31.8401 44.4834C31.6223 44.8925 31.2895 45.2649 30.8418 45.6007L30.7874 44.9505C31.1564 45.0665 31.465 45.2527 31.713 45.5091C31.9611 45.7655 32.1456 46.0677 32.2666 46.4157C32.3937 46.7576 32.4572 47.1209 32.4572 47.5055C32.4572 48.171 32.2817 48.7388 31.9308 49.2089C31.586 49.679 31.1201 50.0362 30.5333 50.2804C29.9464 50.5246 29.2991 50.6467 28.5912 50.6467Z" fill="#E5E5E5"/>
<path d="M34.456 50.372V40.4814H41.3529V42.2855H36.3526V50.372H34.456Z" fill="#E5E5E5"/>
<path d="M44.1469 54.7678L46.0436 49.5569L46.0708 51.0955L41.7965 40.4814H43.7748L46.9692 48.6778H46.3884L49.4376 40.4814H51.3615L45.9528 54.7678H44.1469Z" fill="#E5E5E5"/>
</svg>
